<svg width="200" height="58" viewBox="0 0 200 58" fill="none" xmlns="http://www.w3.org/2000/svg">
<g clip-path="url(#clip0_16_38)">
<path d="M31.9925 1.87097L2.86768 1.87102C2.35105 1.87103 1.94746 2.28886 1.94712 2.8055C1.93898 14.8991 1.77973 28.9441 1.94743 33.3543C2.11949 37.8786 4.5928 56.8226 34.4489 56.1133C64.3052 55.4039 63.3604 1.87098 31.9925 1.87097Z" stroke="#E0E0E0" stroke-width="3"/>
<path d="M31.0949 9.76306H10.7387C10.222 9.76306 9.81714 10.1814 9.81668 10.6981C9.80872 19.2103 9.69955 28.992 9.81714 32.086C9.93894 35.294 11.6905 48.7262 32.8346 48.2231C53.9787 47.7202 53.3097 9.76306 31.0949 9.76306Z" stroke="#E0E0E0" stroke-width="3"/>
</g>
<path d="M83.0547 19.2578V21.6504C83.0547 22.653 82.9375 23.5319 82.7031 24.2871C82.4688 25.0423 82.1302 25.6738 81.6875 26.1816C81.2448 26.6829 80.7142 27.0605 80.0957 27.3145C79.4772 27.5684 78.7936 27.6953 78.0449 27.6953C77.2897 27.6953 76.6029 27.5684 75.9844 27.3145C75.3659 27.0605 74.832 26.6829 74.3828 26.1816C73.9401 25.6738 73.5951 25.0423 73.3477 24.2871C73.1068 23.5319 72.9863 22.653 72.9863 21.6504V19.2578C72.9863 18.2357 73.1068 17.3405 73.3477 16.5723C73.5885 15.804 73.9303 15.1628 74.373 14.6484C74.8223 14.1341 75.3561 13.7467 75.9746 13.4863C76.5931 13.2194 77.2767 13.0859 78.0254 13.0859C78.7806 13.0859 79.4642 13.2194 80.0762 13.4863C80.6947 13.7467 81.2253 14.1341 81.668 14.6484C82.1172 15.1628 82.459 15.804 82.6934 16.5723C82.9342 17.3405 83.0547 18.2357 83.0547 19.2578ZM80.457 21.6504V19.2383C80.457 18.5417 80.4049 17.9427 80.3008 17.4414C80.1966 16.9401 80.0404 16.5332 79.832 16.2207C79.6237 15.9017 79.3665 15.6673 79.0605 15.5176C78.7611 15.3678 78.416 15.293 78.0254 15.293C77.6283 15.293 77.2767 15.3678 76.9707 15.5176C76.6712 15.6673 76.4173 15.9017 76.209 16.2207C76.0072 16.5332 75.8542 16.9401 75.75 17.4414C75.6458 17.9427 75.5938 18.5417 75.5938 19.2383V21.6504C75.5938 22.334 75.6458 22.9199 75.75 23.4082C75.8542 23.8965 76.0104 24.2936 76.2188 24.5996C76.4336 24.9056 76.6908 25.1335 76.9902 25.2832C77.2962 25.4264 77.6478 25.498 78.0449 25.498C78.4355 25.498 78.7806 25.4264 79.0801 25.2832C79.3861 25.1335 79.64 24.9056 79.8418 24.5996C80.0501 24.2936 80.2031 23.8965 80.3008 23.4082C80.4049 22.9199 80.457 22.334 80.457 21.6504ZM88.9141 27.5H86.4238L86.4434 25.3223H88.9141C89.6367 25.3223 90.2064 25.1921 90.623 24.9316C91.0462 24.6647 91.3457 24.2513 91.5215 23.6914C91.7038 23.1315 91.7949 22.4089 91.7949 21.5234V19.248C91.7949 18.571 91.7461 17.9948 91.6484 17.5195C91.5508 17.0378 91.3913 16.6471 91.1699 16.3477C90.9486 16.0482 90.6589 15.8268 90.3008 15.6836C89.9427 15.5404 89.5 15.4688 88.9727 15.4688H86.375V13.2812H88.9727C89.793 13.2812 90.5352 13.4147 91.1992 13.6816C91.8633 13.9421 92.4329 14.3262 92.9082 14.834C93.39 15.3418 93.7578 15.9701 94.0117 16.7188C94.2656 17.4609 94.3926 18.3105 94.3926 19.2676V21.5234C94.3926 22.4805 94.2656 23.3301 94.0117 24.0723C93.7578 24.8145 93.39 25.4395 92.9082 25.9473C92.4329 26.4551 91.8568 26.8424 91.1797 27.1094C90.5091 27.3698 89.7539 27.5 88.9141 27.5ZM87.9277 13.2812V27.5H85.3105V13.2812H87.9277ZM106.453 19.2578V21.6504C106.453 22.653 106.336 23.5319 106.102 24.2871C105.867 25.0423 105.529 25.6738 105.086 26.1816C104.643 26.6829 104.113 27.0605 103.494 27.3145C102.876 27.5684 102.192 27.6953 101.443 27.6953C100.688 27.6953 100.001 27.5684 99.3828 27.3145C98.7643 27.0605 98.2305 26.6829 97.7812 26.1816C97.3385 25.6738 96.9935 25.0423 96.7461 24.2871C96.5052 23.5319 96.3848 22.653 96.3848 21.6504V19.2578C96.3848 18.2357 96.5052 17.3405 96.7461 16.5723C96.987 15.804 97.3288 15.1628 97.7715 14.6484C98.2207 14.1341 98.7546 13.7467 99.373 13.4863C99.9915 13.2194 100.675 13.0859 101.424 13.0859C102.179 13.0859 102.863 13.2194 103.475 13.4863C104.093 13.7467 104.624 14.1341 105.066 14.6484C105.516 15.1628 105.857 15.804 106.092 16.5723C106.333 17.3405 106.453 18.2357 106.453 19.2578ZM103.855 21.6504V19.2383C103.855 18.5417 103.803 17.9427 103.699 17.4414C103.595 16.9401 103.439 16.5332 103.23 16.2207C103.022 15.9017 102.765 15.6673 102.459 15.5176C102.16 15.3678 101.814 15.293 101.424 15.293C101.027 15.293 100.675 15.3678 100.369 15.5176C100.07 15.6673 99.8158 15.9017 99.6074 16.2207C99.4056 16.5332 99.2526 16.9401 99.1484 17.4414C99.0443 17.9427 98.9922 18.5417 98.9922 19.2383V21.6504C98.9922 22.334 99.0443 22.9199 99.1484 23.4082C99.2526 23.8965 99.4089 24.2936 99.6172 24.5996C99.832 24.9056 100.089 25.1335 100.389 25.2832C100.695 25.4264 101.046 25.498 101.443 25.498C101.834 25.498 102.179 25.4264 102.479 25.2832C102.785 25.1335 103.038 24.9056 103.24 24.5996C103.449 24.2936 103.602 23.8965 103.699 23.4082C103.803 22.9199 103.855 22.334 103.855 21.6504ZM118.504 13.2812V27.5H115.955L111.209 18.1348V27.5H108.709V13.2812H111.219L116.004 22.7344V13.2812H118.504ZM126.111 13.2812V27.5H123.514V13.2812H126.111ZM129.695 13.2812V15.4688H119.988V13.2812H129.695ZM141.004 19.2578V21.6504C141.004 22.653 140.887 23.5319 140.652 24.2871C140.418 25.0423 140.079 25.6738 139.637 26.1816C139.194 26.6829 138.663 27.0605 138.045 27.3145C137.426 27.5684 136.743 27.6953 135.994 27.6953C135.239 27.6953 134.552 27.5684 133.934 27.3145C133.315 27.0605 132.781 26.6829 132.332 26.1816C131.889 25.6738 131.544 25.0423 131.297 24.2871C131.056 23.5319 130.936 22.653 130.936 21.6504V19.2578C130.936 18.2357 131.056 17.3405 131.297 16.5723C131.538 15.804 131.88 15.1628 132.322 14.6484C132.771 14.1341 133.305 13.7467 133.924 13.4863C134.542 13.2194 135.226 13.0859 135.975 13.0859C136.73 13.0859 137.413 13.2194 138.025 13.4863C138.644 13.7467 139.174 14.1341 139.617 14.6484C140.066 15.1628 140.408 15.804 140.643 16.5723C140.883 17.3405 141.004 18.2357 141.004 19.2578ZM138.406 21.6504V19.2383C138.406 18.5417 138.354 17.9427 138.25 17.4414C138.146 16.9401 137.99 16.5332 137.781 16.2207C137.573 15.9017 137.316 15.6673 137.01 15.5176C136.71 15.3678 136.365 15.293 135.975 15.293C135.577 15.293 135.226 15.3678 134.92 15.5176C134.62 15.6673 134.367 15.9017 134.158 16.2207C133.956 16.5332 133.803 16.9401 133.699 17.4414C133.595 17.9427 133.543 18.5417 133.543 19.2383V21.6504C133.543 22.334 133.595 22.9199 133.699 23.4082C133.803 23.8965 133.96 24.2936 134.168 24.5996C134.383 24.9056 134.64 25.1335 134.939 25.2832C135.245 25.4264 135.597 25.498 135.994 25.498C136.385 25.498 136.73 25.4264 137.029 25.2832C137.335 25.1335 137.589 24.9056 137.791 24.5996C137.999 24.2936 138.152 23.8965 138.25 23.4082C138.354 22.9199 138.406 22.334 138.406 21.6504ZM152.645 22.3633H149.686V20.1758H152.645C153.094 20.1758 153.455 20.0814 153.729 19.8926C154.008 19.6973 154.21 19.4271 154.334 19.082C154.464 18.737 154.529 18.3464 154.529 17.9102C154.529 17.487 154.464 17.0898 154.334 16.7188C154.21 16.3411 154.008 16.0384 153.729 15.8105C153.455 15.5827 153.094 15.4688 152.645 15.4688H150.486V27.5H147.869V13.2812H152.645C153.589 13.2812 154.396 13.4798 155.066 13.877C155.743 14.2741 156.264 14.821 156.629 15.5176C156.993 16.2077 157.176 16.9987 157.176 17.8906C157.176 18.8151 156.993 19.6094 156.629 20.2734C156.264 20.9375 155.743 21.4518 155.066 21.8164C154.396 22.181 153.589 22.3633 152.645 22.3633ZM159.188 13.2812H163.611C164.555 13.2812 165.359 13.444 166.023 13.7695C166.688 14.0951 167.192 14.5768 167.537 15.2148C167.889 15.8529 168.064 16.6374 168.064 17.5684C168.064 18.3105 167.957 18.9551 167.742 19.502C167.534 20.0423 167.234 20.4948 166.844 20.8594C166.46 21.224 165.994 21.5072 165.447 21.709L164.656 22.1582H160.994L160.984 19.9805H163.553C163.976 19.9805 164.327 19.8861 164.607 19.6973C164.894 19.5085 165.105 19.248 165.242 18.916C165.385 18.5775 165.457 18.1901 165.457 17.7539C165.457 17.2786 165.392 16.8717 165.262 16.5332C165.138 16.1882 164.939 15.9245 164.666 15.7422C164.399 15.5599 164.048 15.4688 163.611 15.4688H161.805V27.5H159.188V13.2812ZM165.73 27.5L163.064 21.1328H165.809L168.523 27.3633V27.5H165.73ZM172.869 13.2812V27.5H170.271V13.2812H172.869ZM176.375 13.2812H178.709L181.805 23.4375L184.871 13.2812H186.99L182.771 27.5H180.818L176.375 13.2812ZM175.467 13.2812H177.664L178.006 22.5V27.5H175.467V13.2812ZM185.916 13.2812H188.123V27.5H185.584V22.5L185.916 13.2812ZM198.66 25.3223V27.5H192.488V25.3223H198.66ZM193.24 13.2812V27.5H190.623V13.2812H193.24ZM197.83 19.1211V21.2402H192.488V19.1211H197.83ZM198.621 13.2812V15.4688H192.488V13.2812H198.621Z" fill="#E0E0E0"/>
<path d="M168.357 42.3965H169.144C169.098 43.1393 168.948 43.75 168.692 44.2285C168.437 44.707 168.086 45.0625 167.64 45.2949C167.198 45.5273 166.667 45.6436 166.047 45.6436C165.568 45.6436 165.138 45.5501 164.755 45.3633C164.372 45.1764 164.044 44.9076 163.771 44.5566C163.502 44.2012 163.294 43.7705 163.148 43.2646C163.007 42.7588 162.937 42.1891 162.937 41.5557V39.4229C162.937 38.7985 163.007 38.2402 163.148 37.748C163.294 37.2513 163.504 36.8298 163.777 36.4834C164.055 36.1325 164.39 35.8659 164.782 35.6836C165.174 35.5013 165.614 35.4102 166.102 35.4102C166.703 35.4102 167.223 35.5241 167.66 35.752C168.102 35.9798 168.449 36.333 168.699 36.8115C168.95 37.29 169.098 37.9076 169.144 38.6641H168.357C168.316 38.0534 168.207 37.5635 168.029 37.1943C167.856 36.8252 167.61 36.5586 167.291 36.3945C166.972 36.2259 166.576 36.1416 166.102 36.1416C165.719 36.1416 165.379 36.2168 165.083 36.3672C164.791 36.513 164.543 36.7272 164.338 37.0098C164.137 37.2878 163.985 37.6296 163.88 38.0352C163.775 38.4362 163.723 38.8942 163.723 39.4092V41.5557C163.723 42.0615 163.771 42.5218 163.866 42.9365C163.966 43.3467 164.112 43.6999 164.304 43.9961C164.5 44.2923 164.741 44.5202 165.028 44.6797C165.32 44.8346 165.66 44.9121 166.047 44.9121C166.539 44.9121 166.945 44.8346 167.264 44.6797C167.587 44.5247 167.838 44.265 168.016 43.9004C168.198 43.5312 168.312 43.0299 168.357 42.3965ZM175.979 44.7686V45.5H171.673V44.7686H175.979ZM171.885 35.5469V45.5H171.099V35.5469H171.885ZM178.516 35.5469V45.5H177.729V35.5469H178.516ZM187.272 35.5469V45.5H186.486L181.797 37.0166V45.5H181.011V35.5469H181.797L186.493 44.0303V35.5469H187.272ZM190.574 35.5469V45.5H189.788V35.5469H190.574ZM198.244 42.3965H199.03C198.985 43.1393 198.834 43.75 198.579 44.2285C198.324 44.707 197.973 45.0625 197.526 45.2949C197.084 45.5273 196.553 45.6436 195.934 45.6436C195.455 45.6436 195.024 45.5501 194.642 45.3633C194.259 45.1764 193.931 44.9076 193.657 44.5566C193.388 44.2012 193.181 43.7705 193.035 43.2646C192.894 42.7588 192.823 42.1891 192.823 41.5557V39.4229C192.823 38.7985 192.894 38.2402 193.035 37.748C193.181 37.2513 193.391 36.8298 193.664 36.4834C193.942 36.1325 194.277 35.8659 194.669 35.6836C195.061 35.5013 195.501 35.4102 195.988 35.4102C196.59 35.4102 197.109 35.5241 197.547 35.752C197.989 35.9798 198.335 36.333 198.586 36.8115C198.837 37.29 198.985 37.9076 199.03 38.6641H198.244C198.203 38.0534 198.094 37.5635 197.916 37.1943C197.743 36.8252 197.497 36.5586 197.178 36.3945C196.859 36.2259 196.462 36.1416 195.988 36.1416C195.605 36.1416 195.266 36.2168 194.97 36.3672C194.678 36.513 194.43 36.7272 194.225 37.0098C194.024 37.2878 193.871 37.6296 193.767 38.0352C193.662 38.4362 193.609 38.8942 193.609 39.4092V41.5557C193.609 42.0615 193.657 42.5218 193.753 42.9365C193.853 43.3467 193.999 43.6999 194.19 43.9961C194.386 44.2923 194.628 44.5202 194.915 44.6797C195.207 44.8346 195.546 44.9121 195.934 44.9121C196.426 44.9121 196.831 44.8346 197.15 44.6797C197.474 44.5247 197.725 44.265 197.902 43.9004C198.085 43.5312 198.199 43.0299 198.244 42.3965Z" fill="white"/>
<defs>
<clipPath id="clip0_16_38">
<rect width="58" height="58" fill="white"/>
</clipPath>
</defs>
</svg>
